<?xml version="1.0" encoding="UTF-8"?><svg id="Layer_1" xmlns="http://www.w3.org/2000/svg" width="263.91" height="109.1" viewBox="0 0 263.91 109.1"><defs><style>.cls-1,.cls-2{fill:#e30016;}.cls-3,.cls-2,.cls-4,.cls-5{fill-rule:evenodd;}.cls-3,.cls-6{fill:#0e0d03;}.cls-4{fill:#1b1918;}.cls-5{fill:#0072b6;}</style></defs><path class="cls-5" d="M250.93,59.96c-1.36,.72-2.73,1.26-4.13,1.6-1.4,.35-2.86,.53-4.43,.53-6.24,0-10.9-2.54-13.99-7.59-3.09-5.07-4.63-12.69-4.63-22.88s1.65-18.28,4.94-23.61c3.3-5.34,8.18-8,14.65-8,1.41,0,2.75,.14,4,.41,1.25,.28,2.45,.68,3.59,1.2v7.73c-1.17-.59-2.29-1.01-3.36-1.29-1.07-.26-2.08-.41-3.03-.41-4.37,0-7.56,1.89-9.57,5.7-2.01,3.8-3.01,9.85-3.01,18.15,0,7.74,.95,13.47,2.87,17.2,1.91,3.72,4.85,5.58,8.85,5.58,1.14,0,2.29-.18,3.46-.57,1.17-.37,2.44-.95,3.81-1.73v7.98ZM205.77,.77h8.2V61.32h-8.2V.77Zm-29.68,31v29.56h-8.21V.77h9.93c6.59,0,11.28,1.22,14.09,3.65,2.79,2.44,4.18,6.48,4.18,12.16,0,4.49-.95,7.97-2.88,10.47-1.91,2.51-4.77,3.99-8.57,4.46l14.44,29.81h-8.8l-13.93-29.56h-.26Zm0-4.67h2.56c3.33,0,5.7-.78,7.08-2.32,1.38-1.54,2.06-4.29,2.06-8.21,0-3.26-.66-5.52-1.98-6.78-1.32-1.26-3.8-1.89-7.42-1.89h-2.3V27.1Zm-41.97,34.22V.77h24.35v7.31h-16.15V26.07h14.77v7.22h-14.77v20.47h16.15v7.56h-24.35Zm-50.71,0L88.62,.77h7.43l8.28,41.93L112.81,.77h7.18l5.3,60.55h-7.59l-2.46-42.46-8.15,42.46h-5.56l-8.13-42.46-2.47,42.46h-7.52Zm-40.8-16.14V.77h8.12V45.85c0,2.9,.66,5.05,1.96,6.43,1.3,1.38,3.31,2.08,6.01,2.08s4.69-.69,5.98-2.08c1.3-1.37,1.94-3.52,1.94-6.43V.77h8.12V45.18c0,5.88-1.29,10.15-3.86,12.86-2.58,2.7-6.64,4.05-12.21,4.05s-9.63-1.35-12.21-4.05c-2.58-2.7-3.86-6.98-3.86-12.86ZM0,61.32V.77H7.61L23.76,42.82V.77h7.78V61.32h-7.69L7.78,18.93V61.32H0Z"/><rect class="cls-6" x="134.84" y="73.78" width=".14" height="35.32"/><path class="cls-3" d="M6.22,88.54l-1.77,4.96h3.47l-1.71-4.96Zm3.26,9.6l-.83-2.41H3.69l-.84,2.41H0l5.07-13.61h2.14l5.09,13.61h-2.84Z"/><path class="cls-3" d="M27.19,96.71c-1.12,1.13-2.45,1.54-3.94,1.54s-2.78-.53-3.76-1.49c-1.41-1.38-1.37-3.08-1.37-5.43s-.04-4.05,1.37-5.43c.98-.95,2.2-1.49,3.76-1.49,3.23,0,4.88,2.06,5.25,4.35h-2.74c-.31-1.28-1.12-1.99-2.51-1.99-.75,0-1.35,.29-1.75,.73-.53,.57-.66,1.2-.66,3.82s.14,3.28,.66,3.84c.39,.44,1,.71,1.75,.71,.82,0,1.49-.28,1.94-.77,.44-.5,.62-1.11,.62-1.82v-.51h-2.56v-2.23h5.27v2c0,1.96-.35,3.15-1.33,4.15Z"/><path class="cls-3" d="M36.63,90.89c-.39-.38-.73-.59-1.35-.59-.79,0-1.64,.57-1.64,1.83v6.01h-2.55v-9.97h2.48v.96c.49-.57,1.47-1.07,2.57-1.07,1,0,1.71,.25,2.41,.93l-1.92,1.89Z"/><path class="cls-3" d="M44.47,90.74c-.3-.28-.68-.44-1.19-.44s-.89,.15-1.18,.44c-.53,.52-.59,1.38-.59,2.41s.06,1.91,.59,2.43c.29,.28,.66,.44,1.18,.44s.89-.15,1.19-.44c.53-.51,.59-1.4,.59-2.43s-.06-1.89-.59-2.41Zm1.98,6.3c-.63,.64-1.67,1.22-3.17,1.22s-2.52-.57-3.15-1.22c-.92-.94-1.16-2.07-1.16-3.88s.24-2.92,1.16-3.86c.63-.65,1.65-1.22,3.15-1.22s2.54,.57,3.17,1.22c.91,.94,1.16,2.07,1.16,3.86s-.24,2.94-1.16,3.88Z"/><path class="cls-3" d="M55.91,98.14v-.92c-.67,.69-1.6,1.03-2.55,1.03-1.02,0-1.84-.32-2.41-.88-.82-.8-1.03-1.74-1.03-2.83v-6.37h2.54v6.03c0,1.36,.88,1.82,1.69,1.82s1.71-.46,1.71-1.82v-6.03h2.55v9.97h-2.49Z"/><path class="cls-3" d="M65.54,90.3c-1.53,0-1.73,1.22-1.73,2.85s.19,2.87,1.73,2.87,1.72-1.24,1.72-2.87-.19-2.85-1.72-2.85Zm3.23,7.06c-.57,.55-1.48,.89-2.49,.89s-1.8-.26-2.47-.99v4.54h-2.55v-13.62h2.47v.94c.71-.77,1.47-1.05,2.55-1.05,1.01,0,1.92,.34,2.49,.89,1.02,1,1.04,2.7,1.04,4.19s-.02,3.21-1.04,4.2Z"/><path class="cls-3" d="M81.05,90.3c-1.53,0-1.73,1.22-1.73,2.85s.2,2.87,1.73,2.87,1.73-1.24,1.73-2.87-.19-2.85-1.73-2.85Zm3.23,7.06c-.56,.55-1.49,.89-2.49,.89-1.08,0-1.85-.28-2.55-1.04v.93h-2.47v-13.61h2.54v4.53c.67-.73,1.43-.99,2.47-.99s1.92,.34,2.49,.89c1.02,1,1.04,2.7,1.04,4.19s-.03,3.21-1.04,4.2Z"/><path class="cls-3" d="M93.3,90.89c-.39-.38-.72-.59-1.35-.59-.78,0-1.64,.57-1.64,1.83v6.01h-2.55v-9.97h2.49v.96c.5-.57,1.47-1.07,2.57-1.07,1,0,1.71,.25,2.41,.93l-1.92,1.89Z"/><path class="cls-3" d="M101.64,93.94h-2.02c-.93,0-1.43,.42-1.43,1.13s.46,1.15,1.47,1.15c.71,0,1.15-.06,1.6-.48,.28-.24,.37-.64,.37-1.26v-.53Zm.06,4.2v-.86c-.68,.67-1.32,.96-2.5,.96s-2-.29-2.61-.88c-.55-.55-.84-1.36-.84-2.24,0-1.58,1.11-2.88,3.48-2.88h2.41v-.5c0-1.09-.55-1.57-1.9-1.57-.98,0-1.44,.23-1.96,.82l-1.63-1.55c1-1.07,1.98-1.37,3.68-1.37,2.86,0,4.35,1.18,4.35,3.52v6.56h-2.49Z"/><path class="cls-3" d="M112.87,98.14v-6.02c0-1.36-.88-1.82-1.69-1.82s-1.71,.46-1.71,1.82v6.02h-2.55v-9.97h2.49v.92c.67-.69,1.6-1.03,2.55-1.03,1.02,0,1.84,.32,2.41,.88,.82,.8,1.04,1.74,1.04,2.83v6.37h-2.55Z"/><path class="cls-3" d="M122,90.35c-1.53,0-1.72,1.22-1.72,2.85s.19,2.86,1.72,2.86,1.74-1.24,1.74-2.86-.21-2.85-1.74-2.85Zm1.81,7.83v-.93c-.71,.76-1.46,1.05-2.53,1.05-1,0-1.94-.34-2.51-.89-1.02-1-1.04-2.72-1.04-4.21s.03-3.19,1.04-4.18c.57-.55,1.49-.9,2.49-.9,1.04,0,1.82,.26,2.49,1v-4.53h2.55v13.61h-2.49Z"/><polygon class="cls-3" points="151.47 82.76 151.47 87.83 156.95 87.83 156.95 101.1 161.95 101.1 161.95 82.76 151.47 82.76"/><rect class="cls-6" x="149.57" y="81.15" width="1.22" height="6.68"/><polygon class="cls-3" points="154.4 101.11 154.4 96.02 148.91 96.02 148.91 82.76 143.92 82.76 143.92 101.11 154.4 101.11"/><rect class="cls-6" x="155.08" y="96.02" width="1.21" height="6.7"/><rect class="cls-1" x="168.45" y="82.23" width="4.42" height="19.81"/><path class="cls-2" d="M204.1,87.55v14.49h4.74v-7.4c.03-3.63,4.21-3.86,4.21-3.86v-3.5c-2.31,0-4.22,1.74-4.22,1.74v-1.48h-4.72Z"/><path class="cls-2" d="M223.69,87.55v14.49h4.56v-8.54c0-2.07,3.37-2.21,3.37,0v8.54h4.49v-10.85c0-2.18-2.94-5.39-7.85-2.28v-1.36h-4.56Z"/><path class="cls-2" d="M214.15,90.68s.4-.11,2.12-.04c2.17,.07,1.91,1.8,1.91,1.8,0,0-1.06-.62-2.57-.64-1.67-.03-5.03,.98-5.03,5.27,0,3.81,3.12,4.91,4.98,4.91s2.81-.84,2.81-.84v.91h4.31v-9.88c0-1.92-.38-2.45-1.25-3.41-1.26-1.36-4.24-1.47-4.24-1.47h-3.04v3.39Zm.44,6.03c0-1.03,.86-1.87,1.91-1.87s1.91,.84,1.91,1.87-.85,1.87-1.91,1.87-1.91-.84-1.91-1.87Z"/><path class="cls-2" d="M243.65,97.73c-1.58,0-2.86-1.26-2.86-2.8s1.28-2.8,2.86-2.8,2.86,1.26,2.86,2.8-1.28,2.8-2.86,2.8Zm.06-9.72c-4.74-.12-6.77,3.8-6.77,6.86-.04,4.02,2.68,7.31,6.73,7.01,.95-.1,1.74-.47,2.53-1.06v1.22h4.6v-19.82h-4.6v6.59c-.95-.68-2.49-.81-2.49-.81Z"/><path class="cls-2" d="M195.78,97.61c-1.59,0-2.88-1.26-2.88-2.8s1.29-2.8,2.88-2.8,2.86,1.26,2.86,2.8-1.29,2.8-2.86,2.8Zm.32,6.75c-2.11-.1-2.56-1.42-2.56-1.42h-5.31c1.11,7.23,14.13,7.53,14.74,.59v-15.99h-4.42v1.5c-3.06-3.02-10.18-.83-9.94,5.95,.22,6.35,7.13,8.27,9.94,5.81v1.71c-.03,1.93-2.45,1.85-2.45,1.85Z"/><path class="cls-2" d="M178.36,92.96c.14-1.2,1.18-2.14,2.45-2.14s2.32,.93,2.47,2.14h-4.91Zm2.45-5.95c-3.62,0-7.16,2.89-7.16,7.47,.01,5.14,3.3,8.11,7.65,7.99,3.32-.1,5.63-2.16,6.46-5.03h-4.54c-.23,.47-.88,1-2.21,1-1.69,0-2.58-1.23-2.58-2.45h9.6c.54-5.34-2.99-8.99-7.22-8.99Z"/><path class="cls-3" d="M254.43,86.9c-1.21,0-2.2-.97-2.2-2.16s.99-2.16,2.2-2.16,2.22,.97,2.22,2.16-.99,2.16-2.22,2.16Zm0-4.68c-1.42,0-2.57,1.13-2.57,2.52s1.16,2.52,2.57,2.52,2.58-1.13,2.58-2.52-1.15-2.52-2.58-2.52Z"/><path class="cls-3" d="M253.77,84.59h.84c.27,0,.55-.07,.55-.45,0-.4-.3-.43-.48-.43h-.91v.88Zm0,1.44h-.36v-2.64h1.24c.44,0,.9,.15,.9,.72,0,.38-.21,.53-.39,.62,.15,.06,.31,.13,.32,.5l.03,.48c0,.14,.02,.2,.12,.26v.06h-.44c-.06-.15-.07-.55-.07-.66,0-.21-.04-.47-.48-.47h-.88v1.13Z"/><path class="cls-4" d="M258.55,.65c-2.95,0-5.35,2.4-5.35,5.35s2.4,5.36,5.35,5.36,5.36-2.39,5.36-5.36-2.41-5.35-5.36-5.35Zm0,9.95c-2.52,0-4.58-2.05-4.58-4.6s2.06-4.58,4.58-4.58,4.59,2.06,4.59,4.58-2.06,4.6-4.59,4.6Z"/><path class="cls-4" d="M257.18,8.75h-.77V3.13h2.59c.92,0,1.85,.32,1.85,1.5,0,.83-.43,1.14-.79,1.35,.32,.14,.64,.28,.67,1.05l.05,1.02c0,.32,.05,.44,.28,.57v.13h-.93c-.11-.35-.14-1.2-.14-1.42,0-.46-.1-1-1-1h-1.83v2.41Zm0-3.07h1.75c.55,0,1.14-.14,1.14-.97s-.64-.93-1.01-.93h-1.88v1.91Z"/></svg>